<svg id="Layer_1" data-name="Layer 1" xmlns="http://www.w3.org/2000/svg" viewBox="0 0 433.55 93.59"><defs><style>.cls-1{fill:#18408b;}</style></defs><path d="M163.07,402.7Q153.49,413,135.38,413T107.7,402.7Q94.86,390,94.86,366.22q0-24.3,12.84-36.47,9.57-10.32,27.68-10.32t27.69,10.32q12.78,12.18,12.78,36.47Q175.85,390,163.07,402.7Zm-11-13.44q6.16-8.1,6.16-23t-6.16-23a19.79,19.79,0,0,0-16.65-8.13,20,20,0,0,0-16.73,8.1q-6.25,8.08-6.25,23t6.25,23a20,20,0,0,0,16.73,8.1A19.82,19.82,0,0,0,152,389.26Z" transform="translate(-94.86 -319.43)"/><path d="M236.41,324.41a21,21,0,0,1,7.91,6.18,28,28,0,0,1,4.25,7.44,25.91,25.91,0,0,1,1.56,9.3,27.42,27.42,0,0,1-3,12.38,17.17,17.17,0,0,1-10,8.61,16,16,0,0,1,8.29,7q2.43,4.53,2.43,13.83v5.94a46.72,46.72,0,0,0,.47,8.22,7.37,7.37,0,0,0,3.26,5v2.22H232c-.54-2-.92-3.54-1.15-4.74a45.55,45.55,0,0,1-.74-7.62L230,390q-.1-8.46-2.79-11.28t-10.05-2.82H199.92v34.68H182.67V322.13h40.41Q231.75,322.31,236.41,324.41Zm-36.49,13.08v23.75h19q5.67,0,8.49-1.44,5-2.52,5-10,0-8-4.84-10.79-2.73-1.56-8.17-1.56Z" transform="translate(-94.86 -319.43)"/><path d="M325.05,402.7Q315.48,413,297.36,413T269.68,402.7Q256.84,390,256.84,366.22q0-24.3,12.84-36.47,9.57-10.32,27.68-10.32t27.69,10.32q12.78,12.18,12.78,36.47Q337.83,390,325.05,402.7Zm-11-13.44q6.17-8.1,6.16-23t-6.16-23a19.78,19.78,0,0,0-16.65-8.13,20,20,0,0,0-16.73,8.1q-6.25,8.08-6.25,23t6.25,23a20,20,0,0,0,16.73,8.1A19.81,19.81,0,0,0,314,389.26Z" transform="translate(-94.86 -319.43)"/><path d="M357,383.26q.81,6.06,3.22,9.06,4.38,5.46,15,5.46a31,31,0,0,0,10.36-1.44q7.55-2.76,7.55-10.26a7.63,7.63,0,0,0-3.7-6.78q-3.69-2.34-11.73-4.14l-9.14-2.1q-13.49-3.12-18.53-6.78-8.54-6.12-8.54-19.13a26,26,0,0,1,8.36-19.74q8.36-7.86,24.54-7.86,13.52,0,23.06,7.41t10,21.51h-17q-.47-8-6.81-11.34a22.47,22.47,0,0,0-10.52-2.22q-7,0-11.16,2.88a9.23,9.23,0,0,0-4.17,8A7.62,7.62,0,0,0,362,352.9c1.76,1,5.5,2.27,11.22,3.66L388,360.22q9.75,2.4,14.61,6.42,7.54,6.24,7.55,18.06a25.86,25.86,0,0,1-9,20.13q-8.94,8-25.28,8-16.69,0-26.25-7.89t-9.55-21.69Z" transform="translate(-94.86 -319.43)"/><path d="M435.61,410.56H418.07V322.13h17.54Z" transform="translate(-94.86 -319.43)"/><polygon class="cls-1" points="391.11 24.49 352.51 24.49 352.51 2.28 376.8 2.28 391.11 24.49"/><polygon class="cls-1" points="412.33 58.04 352.51 58.04 352.51 35.84 398.02 35.84 412.33 58.04"/><polygon class="cls-1" points="433.55 91.6 352.51 91.6 352.51 69.39 419.24 69.39 433.55 91.6"/></svg>